<svg xmlns="http://www.w3.org/2000/svg" viewBox="0 0 31.61 31.61"><defs><style>.cls-1{fill:#2b8890;}.cls-2{fill:#faab44;}</style></defs><g id="Layer_2" data-name="Layer 2"><g id="Layer_1-2" data-name="Layer 1"><path class="cls-1" d="M.06,17.12c0-.43-.06-.87-.06-1.31A15.84,15.84,0,0,1,11.86.5V13.91H9.23V6.74h0v-2h0V4.39A13.19,13.19,0,0,0,2.7,14.49H14.08a2.16,2.16,0,0,0,0,2.61H.06Z"/><path class="cls-1" d="M17.11,25h0v6.56q-.64.06-1.32.06A15.83,15.83,0,0,1,.5,19.76H13.91v1.29h0v1.33H4.4a13.18,13.18,0,0,0,10.09,6.53V25h0V21.64h0V17.52a2.06,2.06,0,0,0,1.31.45,2.1,2.1,0,0,0,1.3-.44Z"/><path class="cls-1" d="M14.5,6.62h0V.05c.43,0,.87,0,1.32,0a15.83,15.83,0,0,1,15.3,11.85H17.69v-.92h0V9.23h9.51A13.19,13.19,0,0,0,17.12,2.7v7.65h0v3.73a2.16,2.16,0,0,0-2.61,0Z"/><path class="cls-1" d="M31.61,15.8A15.83,15.83,0,0,1,19.76,31.11V17.69h2.62v9.52a13.16,13.16,0,0,0,6.53-10.09H17.53a2.16,2.16,0,0,0,0-2.61h14C31.59,14.92,31.61,15.36,31.61,15.8Z"/><path class="cls-2" d="M17.13,15.81a1.33,1.33,0,1,1-1.32-1.33A1.33,1.33,0,0,1,17.13,15.81Z"/></g></g></svg>