<svg width="376" height="330" viewBox="0 0 376 330" fill="none" xmlns="http://www.w3.org/2000/svg">
<g clip-path="url(#clip0_11_39)">
<path d="M375.5 163C375.5 213.49 359.86 254.25 329.02 284.16C298.18 314.07 251.61 329 190.21 329H76V76.36H0V0.1H76.27V76.18H156.16L156.09 252H197.5C229.87 252 254.61 244.54 271.01 229.84C287.17 215.35 295.01 193.92 295.01 164.3C295.01 104.19 262.24 76.19 191.88 76.19H156.16V0H193.63C250.86 0 295.85 14.48 327.37 43C359.31 72 375.5 112.33 375.5 163Z" fill="#01262F"/>
</g>
<defs>
<clipPath id="clip0_11_39">
<rect width="375.5" height="329.02" fill="white"/>
</clipPath>
</defs>
</svg>
