<svg xmlns="http://www.w3.org/2000/svg" viewBox="0 0 1813.58 385.04"><defs><style>.cls-1{fill:#2b8890;}.cls-2{fill:#faab44;}.cls-3{fill:#fff;}</style></defs><g id="Layer_2" data-name="Layer 2"><g id="Layer_1-2" data-name="Layer 1"><path class="cls-1" d="M1179.73,256.38q10.85,0,15.55,4.9t4.71,14.51v7q0,9.62-4.71,14.51t-15.55,4.9h-39v18.09a1.83,1.83,0,0,1-2.07,2.07h-10.18q-2.16,0-2.16-2.07V259.21a2.5,2.5,0,0,1,2.82-2.83Zm-39,33.35h36.08q4.82,0,6.79-2.07c1.32-1.38,2-3.49,2-6.31v-3.58c0-2.83-.65-4.93-2-6.31s-3.58-2.08-6.79-2.08H1142c-.82,0-1.23.38-1.23,1.13Z"/><path class="cls-1" d="M1276.39,256.38c1.45,0,2.17.69,2.17,2.08v9c0,1.38-.72,2.07-2.17,2.07h-41.17a25,25,0,0,0-6.07.61,8.25,8.25,0,0,0-3.87,2.07,8,8,0,0,0-2,4,28.22,28.22,0,0,0-.57,6.17v.94h53.23a1.84,1.84,0,0,1,2.08,2.07v7.45a1.84,1.84,0,0,1-2.08,2.07h-53.23v1.6a28.22,28.22,0,0,0,.57,6.17,7.94,7.94,0,0,0,2,4,8.25,8.25,0,0,0,3.87,2.07,25,25,0,0,0,6.07.61h41.17c1.45,0,2.17.7,2.17,2.08v8.95c0,1.38-.72,2.07-2.17,2.07h-41.45a48.19,48.19,0,0,1-12.15-1.32,18.54,18.54,0,0,1-8.15-4.29A17.29,17.29,0,0,1,1210,309a39.82,39.82,0,0,1-1.46-11.54V281.25a39.32,39.32,0,0,1,1.46-11.49,17.37,17.37,0,0,1,4.62-7.68,18.9,18.9,0,0,1,8.15-4.33,46.66,46.66,0,0,1,12.15-1.37Z"/><path class="cls-1" d="M1342.81,256.38q10.83,0,15.55,4.9t4.71,14.51v5.37q0,8.1-3.3,12.81T1349,300l16.11,20a1.5,1.5,0,0,1,.28,1.42c-.12.63-.63.94-1.5.94h-12.16a3.54,3.54,0,0,1-1.69-.28,3.35,3.35,0,0,1-1-.94l-14.88-19.6h-30.43v18.75a1.83,1.83,0,0,1-2.07,2.07h-10.18c-1.44,0-2.17-.69-2.17-2.07V259.21a2.5,2.5,0,0,1,2.83-2.83Zm-39,33.64h36.08c3.2,0,5.47-.69,6.78-2.08s2-3.48,2-6.31v-4c0-2.82-.66-4.93-2-6.31s-3.58-2.07-6.78-2.07H1305c-.81,0-1.22.38-1.22,1.13Z"/><path class="cls-1" d="M1441.73,256.38c1.45,0,2.17.69,2.17,2.08v9c0,1.38-.72,2.07-2.17,2.07h-40.88a25.1,25.1,0,0,0-6.08.61,8,8,0,0,0-3.82,2.07,8.55,8.55,0,0,0-2,4,26.26,26.26,0,0,0-.61,6.17v1.88h52.94a1.84,1.84,0,0,1,2.08,2.08v7.44a1.84,1.84,0,0,1-2.08,2.07h-52.94v24.5a1.84,1.84,0,0,1-2.08,2.07h-10.17c-1.45,0-2.17-.69-2.17-2.07v-39a39.32,39.32,0,0,1,1.46-11.49,17.28,17.28,0,0,1,4.62-7.68,18.9,18.9,0,0,1,8.15-4.33,46.66,46.66,0,0,1,12.15-1.37Z"/><path class="cls-1" d="M1465.57,256.38a1.83,1.83,0,0,1,2.07,2.08v61.8a1.83,1.83,0,0,1-2.07,2.07h-10.18q-2.16,0-2.16-2.07v-61.8c0-1.39.72-2.08,2.16-2.08Z"/><path class="cls-1" d="M1551.87,256.38c1.44,0,2.16.69,2.16,2.08v9.23a1.91,1.91,0,0,1-2.16,2.16h-29.59v50.41a1.83,1.83,0,0,1-2.07,2.07h-10.27a1.83,1.83,0,0,1-2.07-2.07V269.85h-29.58a1.91,1.91,0,0,1-2.17-2.16v-9.23c0-1.39.72-2.08,2.17-2.08Z"/><path class="cls-1" d="M1575.51,256.38a1.83,1.83,0,0,1,2.07,2.08V296a26.7,26.7,0,0,0,.62,6.27,8.46,8.46,0,0,0,2,4,7.93,7.93,0,0,0,3.82,2.07,25,25,0,0,0,6.07.61h38.16a1.83,1.83,0,0,1,2.07,2.07v9.24a1.83,1.83,0,0,1-2.07,2.07h-38.72A48.14,48.14,0,0,1,1577.4,321a18.54,18.54,0,0,1-8.15-4.29,17.2,17.2,0,0,1-4.62-7.72,39.82,39.82,0,0,1-1.46-11.54v-39c0-1.39.72-2.08,2.17-2.08Z"/><path class="cls-1" d="M1651.16,256.38a1.83,1.83,0,0,1,2.07,2.08v61.8a1.83,1.83,0,0,1-2.07,2.07H1641c-1.45,0-2.17-.69-2.17-2.07v-61.8c0-1.39.72-2.08,2.17-2.08Z"/><path class="cls-1" d="M1732.84,256.38c1.45,0,2.17.69,2.17,2.08v9c0,1.38-.72,2.07-2.17,2.07H1692a25.1,25.1,0,0,0-6.08.61,8,8,0,0,0-3.82,2.07,8.55,8.55,0,0,0-2,4,26.26,26.26,0,0,0-.61,6.17v1.88h52.94a1.84,1.84,0,0,1,2.08,2.08v7.44a1.84,1.84,0,0,1-2.08,2.07h-52.94v24.5a1.84,1.84,0,0,1-2.08,2.07h-10.17c-1.45,0-2.17-.69-2.17-2.07v-39a39.32,39.32,0,0,1,1.46-11.49,17.28,17.28,0,0,1,4.62-7.68,18.9,18.9,0,0,1,8.15-4.33,46.66,46.66,0,0,1,12.15-1.37Z"/><path class="cls-1" d="M1811.42,256.38c1.44,0,2.16.69,2.16,2.08v9q0,2.07-2.16,2.07h-41.18a25,25,0,0,0-6.07.61,8.3,8.3,0,0,0-3.87,2.07,8,8,0,0,0-2,4,28.22,28.22,0,0,0-.57,6.17v.94h53.23a1.84,1.84,0,0,1,2.08,2.07v7.45a1.84,1.84,0,0,1-2.08,2.07h-53.23v1.6a28.22,28.22,0,0,0,.57,6.17,7.94,7.94,0,0,0,2,4,8.3,8.3,0,0,0,3.87,2.07,25,25,0,0,0,6.07.61h41.18a1.88,1.88,0,0,1,2.16,2.08v8.95q0,2.07-2.16,2.07H1770a48.19,48.19,0,0,1-12.15-1.32,18.54,18.54,0,0,1-8.15-4.29A17.29,17.29,0,0,1,1745,309a39.82,39.82,0,0,1-1.46-11.54V281.25a39.32,39.32,0,0,1,1.46-11.49,17.37,17.37,0,0,1,4.62-7.68,18.9,18.9,0,0,1,8.15-4.33,46.66,46.66,0,0,1,12.15-1.37Z"/><path class="cls-2" d="M1307.58,354.31v30.32h-6V354.31h-10.88v-5.54h27.81v5.54Z"/><path class="cls-2" d="M1353.65,360.42q0,8.86-7.75,11.18l9.39,13h-7.7L1339,372.58h-8v12.05H1325V348.77h13.34q8.21,0,11.75,2.77T1353.65,360.42Zm-8.06,5.08q1.85-1.59,1.85-5.11t-1.9-4.82q-1.89-1.31-6.77-1.31h-7.69v12.83h7.54Q1343.75,367.09,1345.59,365.5Z"/><path class="cls-2" d="M1367.45,376.48l-3.59,8.15h-6.47l15.8-35.86h6.47l15.8,35.86H1389l-3.59-8.15Zm15.49-5.6-6.52-14.77-6.51,14.77Z"/><path class="cls-2" d="M1427.57,353.47q5.17,4.69,5.18,13t-5,13.24q-5,4.88-15.39,4.87h-11.9V348.77h12.31Q1422.39,348.77,1427.57,353.47Zm-.92,13.21q0-12.31-14.11-12.31h-6v24.57h6.72q6.51,0,10-3.11T1426.65,366.68Z"/><path class="cls-2" d="M1440.55,348.77h6v35.86h-6Z"/><path class="cls-2" d="M1483.43,348.77h6.06v35.86h-6.57l-20.31-26.16v26.16h-6.06V348.77h6.06l20.82,26.78Z"/><path class="cls-2" d="M1524.27,367.19h6v12.26q-5.07,5.6-14.52,5.59a18.3,18.3,0,0,1-13.31-5.23,19,19,0,0,1,.11-26.57,18.19,18.19,0,0,1,13.2-5.34,18.78,18.78,0,0,1,12.88,4.52l-3.23,4.61a12.82,12.82,0,0,0-4.23-2.49,16.08,16.08,0,0,0-5-.69,12.74,12.74,0,0,0-9.14,3.52,12.63,12.63,0,0,0,8.6,21.88,15.51,15.51,0,0,0,8.54-2.21Z"/><path class="cls-2" d="M1576.54,351.9q3.75,3.14,3.75,9.65t-3.82,9.54q-3.83,3-11.73,3h-6.36v10.51h-6.05V348.77h12.31Q1572.8,348.77,1576.54,351.9Zm-4.28,14.8a7.92,7.92,0,0,0,1.82-5.64q0-3.72-2.31-5.26c-1.54-1-4-1.54-7.23-1.54h-6.16v14.37h7Q1570.44,368.63,1572.26,366.7Z"/><path class="cls-2" d="M1587.42,384.63V348.77h6v30.12h16.37v5.74Z"/><path class="cls-2" d="M1632.82,379.14a12.65,12.65,0,0,0,5.38-1.05,18.38,18.38,0,0,0,4.72-3.36l3.9,4A17.91,17.91,0,0,1,1633,385a18.51,18.51,0,0,1-13.49-5.23,19,19,0,0,1,.1-26.57,18.93,18.93,0,0,1,13.8-5.34,18,18,0,0,1,13.93,6.16l-3.85,4.2a16.83,16.83,0,0,0-4.85-3.43,13.57,13.57,0,0,0-5.36-1,12.7,12.7,0,0,0-9.13,3.52,11.84,11.84,0,0,0-3.69,9,12.38,12.38,0,0,0,3.66,9.13A11.89,11.89,0,0,0,1632.82,379.14Z"/><path class="cls-1" d="M1373.34,104.16c-.23-2.65-.35-5.3-.35-8A96.34,96.34,0,0,1,1445.12,3V84.64h-15.95V41h0V28.74s0,0,0,0v-2a80.18,80.18,0,0,0-39.75,61.4h23.44v.05h45.81a13.1,13.1,0,0,0,0,15.93h-45.81v0Z"/><path class="cls-1" d="M1477.09,152h.05v40c-2.65.23-5.3.35-8,.35a96.32,96.32,0,0,1-93.1-72.13h81.61v7.9h0v8h-57.86a80.24,80.24,0,0,0,61.38,39.75V152h0V131.62h0v-25a13,13,0,0,0,15.92,0Z"/><path class="cls-1" d="M1461.17,40.28h-.05V.33c2.65-.23,5.32-.33,8-.33a96.32,96.32,0,0,1,93.13,72.1H1524v0h-43.39V66.52h.08V56.18h57.86a80.21,80.21,0,0,0-61.43-39.77V63h-.05V85.66a13,13,0,0,0-15.92,0Z"/><path class="cls-1" d="M1565.3,96.13a96.33,96.33,0,0,1-72.13,93.12v-81.6h15.95v57.91a80.2,80.2,0,0,0,39.75-61.4h-23.44v0h-45.82a13.06,13.06,0,0,0,0-15.93h45.82v-.05h39.51C1565.17,90.78,1565.3,93.43,1565.3,96.13Z"/><path class="cls-2" d="M1477.22,96.17a8.08,8.08,0,1,1-8.08-8.1A8.08,8.08,0,0,1,1477.22,96.17Z"/><path class="cls-3" d="M53.42,256.38q10.83,0,15.54,4.9t4.71,14.51v7q0,9.62-4.71,14.51t-15.54,4.9h-39v18.09a1.84,1.84,0,0,1-2.08,2.07H2.17c-1.45,0-2.17-.69-2.17-2.07V259.21a2.5,2.5,0,0,1,2.83-2.83Zm-39,33.35H50.5q4.8,0,6.78-2.07c1.32-1.38,2-3.49,2-6.31v-3.58q0-4.25-2-6.31t-6.78-2.08H15.64c-.82,0-1.22.38-1.22,1.13Z"/><path class="cls-3" d="M150.08,256.38c1.44,0,2.17.69,2.17,2.07v8.95c0,1.39-.73,2.08-2.17,2.08H108.91a25.1,25.1,0,0,0-6.08.61A8.21,8.21,0,0,0,99,272.16a8,8,0,0,0-2,4,28.93,28.93,0,0,0-.56,6.17v.94h53.23a1.83,1.83,0,0,1,2.07,2.07v7.45a1.83,1.83,0,0,1-2.07,2.07H96.38v1.6a28.93,28.93,0,0,0,.56,6.17,7.87,7.87,0,0,0,2,4,8.21,8.21,0,0,0,3.86,2.07,25.1,25.1,0,0,0,6.08.61h41.17c1.44,0,2.17.7,2.17,2.08v8.95c0,1.38-.73,2.07-2.17,2.07H108.62A48.19,48.19,0,0,1,96.47,321a18.59,18.59,0,0,1-8.15-4.29A17.27,17.27,0,0,1,83.71,309a39.48,39.48,0,0,1-1.46-11.54V281.25a39,39,0,0,1,1.46-11.49,17.35,17.35,0,0,1,4.61-7.68,19,19,0,0,1,8.15-4.33,46.66,46.66,0,0,1,12.15-1.37Z"/><path class="cls-3" d="M216.5,256.38q10.83,0,15.54,4.9t4.71,14.51v5.37q0,8.1-3.29,12.81t-10.75,6l16.11,20a1.5,1.5,0,0,1,.29,1.42c-.13.63-.63.94-1.51.94H225.45a3.56,3.56,0,0,1-1.7-.28,3.26,3.26,0,0,1-.94-.95l-14.89-19.59H177.49v18.75a1.83,1.83,0,0,1-2.07,2.07H165.25c-1.45,0-2.17-.69-2.17-2.07V259.21a2.5,2.5,0,0,1,2.83-2.83Zm-39,33.64h36.09c3.2,0,5.46-.7,6.78-2.08s2-3.48,2-6.31v-4c0-2.82-.66-4.93-2-6.31s-3.58-2.07-6.78-2.07H178.72c-.82,0-1.23.38-1.23,1.13Z"/><path class="cls-3" d="M315.42,256.38q2.16,0,2.16,2.07v8.95c0,1.39-.72,2.08-2.16,2.08H274.53a25.16,25.16,0,0,0-6.08.61,7.89,7.89,0,0,0-3.81,2.07,8.56,8.56,0,0,0-2,4,26.26,26.26,0,0,0-.61,6.17v1.88H315a1.84,1.84,0,0,1,2.07,2.08v7.44a1.83,1.83,0,0,1-2.07,2.07H262v24.5a1.83,1.83,0,0,1-2.07,2.07H249.75q-2.16,0-2.16-2.07v-39a39,39,0,0,1,1.46-11.49,17.35,17.35,0,0,1,4.61-7.68,19,19,0,0,1,8.15-4.33A46.66,46.66,0,0,1,274,256.38Z"/><path class="cls-3" d="M339.25,256.38a1.84,1.84,0,0,1,2.08,2.07v61.81a1.84,1.84,0,0,1-2.08,2.07H329.08c-1.45,0-2.17-.69-2.17-2.07V258.45c0-1.38.72-2.07,2.17-2.07Z"/><path class="cls-3" d="M425.55,256.38c1.45,0,2.17.69,2.17,2.07v9.24a1.91,1.91,0,0,1-2.17,2.16H396v50.41a1.83,1.83,0,0,1-2.07,2.07H383.63a1.83,1.83,0,0,1-2.08-2.07V269.85H352a1.92,1.92,0,0,1-2.17-2.16v-9.24c0-1.38.73-2.07,2.17-2.07Z"/><path class="cls-3" d="M449.2,256.38a1.83,1.83,0,0,1,2.07,2.07V296a26.76,26.76,0,0,0,.61,6.27,8.47,8.47,0,0,0,2,4,7.89,7.89,0,0,0,3.81,2.07,25.1,25.1,0,0,0,6.08.61H502A1.84,1.84,0,0,1,504,311v9.24a1.84,1.84,0,0,1-2.08,2.07H463.23A48.19,48.19,0,0,1,451.08,321a18.54,18.54,0,0,1-8.15-4.29,17.38,17.38,0,0,1-4.62-7.72,39.82,39.82,0,0,1-1.46-11.54v-39c0-1.38.73-2.07,2.17-2.07Z"/><path class="cls-3" d="M524.85,256.38a1.83,1.83,0,0,1,2.07,2.07v61.81a1.83,1.83,0,0,1-2.07,2.07H514.67c-1.44,0-2.17-.69-2.17-2.07V258.45c0-1.38.73-2.07,2.17-2.07Z"/><path class="cls-3" d="M606.53,256.38q2.16,0,2.16,2.07v8.95c0,1.39-.72,2.08-2.16,2.08H565.64a25.16,25.16,0,0,0-6.08.61,7.89,7.89,0,0,0-3.81,2.07,8.56,8.56,0,0,0-2,4,26.26,26.26,0,0,0-.61,6.17v1.88h52.95a1.84,1.84,0,0,1,2.07,2.08v7.44a1.83,1.83,0,0,1-2.07,2.07H553.11v24.5a1.83,1.83,0,0,1-2.07,2.07H540.86q-2.16,0-2.16-2.07v-39a39,39,0,0,1,1.46-11.49,17.35,17.35,0,0,1,4.61-7.68,19,19,0,0,1,8.15-4.33,46.66,46.66,0,0,1,12.15-1.37Z"/><path class="cls-3" d="M685.1,256.38c1.44,0,2.17.69,2.17,2.07v8.95c0,1.39-.73,2.08-2.17,2.08H643.93a25.1,25.1,0,0,0-6.08.61,8.21,8.21,0,0,0-3.86,2.07,8,8,0,0,0-2,4,28.93,28.93,0,0,0-.56,6.17v.94h53.23a1.83,1.83,0,0,1,2.07,2.07v7.45a1.83,1.83,0,0,1-2.07,2.07H631.4v1.6a28.93,28.93,0,0,0,.56,6.17,8,8,0,0,0,2,4,8.21,8.21,0,0,0,3.86,2.07,25.1,25.1,0,0,0,6.08.61H685.1c1.44,0,2.17.7,2.17,2.08v8.95c0,1.38-.73,2.07-2.17,2.07H643.65A48.22,48.22,0,0,1,631.49,321a18.59,18.59,0,0,1-8.15-4.29,17.27,17.27,0,0,1-4.61-7.72,39.48,39.48,0,0,1-1.46-11.54V281.25a39,39,0,0,1,1.46-11.49,17.35,17.35,0,0,1,4.61-7.68,19,19,0,0,1,8.15-4.33,46.68,46.68,0,0,1,12.16-1.37Z"/><path class="cls-2" d="M181.27,354.31v30.32h-6.06V354.31H164.34v-5.54h27.8v5.54Z"/><path class="cls-2" d="M227.33,360.42q0,8.86-7.74,11.18l9.38,13h-7.69l-8.57-12.05h-8v12.05h-6V348.77H212q8.22,0,11.75,2.77T227.33,360.42Zm-8.05,5.08c1.23-1.06,1.84-2.77,1.84-5.11s-.63-3.95-1.89-4.82-3.53-1.31-6.77-1.31h-7.7v12.83h7.54Q217.43,367.09,219.28,365.5Z"/><path class="cls-2" d="M241.13,376.48l-3.59,8.15h-6.46l15.8-35.86h6.46l15.8,35.86h-6.46l-3.59-8.15Zm15.49-5.6-6.51-14.77-6.52,14.77Z"/><path class="cls-2" d="M301.25,353.47q5.19,4.69,5.19,13t-5,13.24q-5,4.88-15.39,4.87h-11.9V348.77h12.31Q296.08,348.77,301.25,353.47Zm-.92,13.21q0-12.31-14.11-12.32h-6.05v24.58h6.72q6.51,0,10-3.11T300.33,366.68Z"/><path class="cls-2" d="M314.23,348.77h6.06v35.86h-6.06Z"/><path class="cls-2" d="M357.12,348.77h6.05v35.86h-6.56l-20.32-26.16v26.16h-6.05V348.77h6.05l20.83,26.78Z"/><path class="cls-2" d="M398,367.19H404v12.26q-5.08,5.6-14.52,5.59a18.29,18.29,0,0,1-13.31-5.23,19,19,0,0,1,.1-26.57,18.21,18.21,0,0,1,13.21-5.34,18.8,18.8,0,0,1,12.88,4.52L399.13,357a12.82,12.82,0,0,0-4.23-2.49,16.08,16.08,0,0,0-4.95-.69,12.71,12.71,0,0,0-9.13,3.52,12.62,12.62,0,0,0,8.59,21.87A15.49,15.49,0,0,0,398,377Z"/><path class="cls-2" d="M450.23,351.9Q454,355,454,361.55t-3.82,9.54q-3.82,3-11.72,3h-6.36v10.52H426V348.77h12.32Q446.48,348.77,450.23,351.9Zm-4.29,14.8a7.87,7.87,0,0,0,1.82-5.64c0-2.48-.76-4.23-2.3-5.26s-3.95-1.54-7.24-1.54h-6.15v14.37h7C442.45,368.63,444.73,368,445.94,366.7Z"/><path class="cls-2" d="M461.1,384.63V348.77h6.06v30.12h16.36v5.74Z"/><path class="cls-2" d="M506.5,379.14a12.7,12.7,0,0,0,5.39-1.05,18.55,18.55,0,0,0,4.72-3.36l3.9,4A18,18,0,0,1,506.68,385a18.51,18.51,0,0,1-13.49-5.23,19,19,0,0,1,.1-26.57,18.94,18.94,0,0,1,13.8-5.34A18,18,0,0,1,521,354.06l-3.85,4.2a16.7,16.7,0,0,0-4.85-3.43,13.53,13.53,0,0,0-5.36-1,12.71,12.71,0,0,0-9.13,3.52,11.84,11.84,0,0,0-3.69,9,12.37,12.37,0,0,0,3.67,9.13A11.85,11.85,0,0,0,506.5,379.14Z"/><path class="cls-3" d="M247,104.16c-.23-2.65-.36-5.3-.36-8A96.34,96.34,0,0,1,318.8,3V84.64H302.85V41h0V28.74s0,0,0,0v-2a80.21,80.21,0,0,0-39.75,61.4h23.44v.05h45.81a13.1,13.1,0,0,0,0,15.93H286.54v0Z"/><path class="cls-3" d="M350.77,152h.06v40c-2.65.23-5.3.35-8,.35a96.32,96.32,0,0,1-93.1-72.13h81.61v7.9h0v8H273.42a80.24,80.24,0,0,0,61.38,39.75V152h0V131.62h0v-25a13,13,0,0,0,15.92,0Z"/><path class="cls-3" d="M334.85,40.28h-.05V.33c2.65-.23,5.32-.33,8-.33A96.31,96.31,0,0,1,436,72.1H397.71v0H354.32V66.52h.07V56.18h57.86a80.21,80.21,0,0,0-61.42-39.77V63h-.06V85.66a13,13,0,0,0-15.92,0Z"/><path class="cls-3" d="M439,96.13a96.33,96.33,0,0,1-72.13,93.12v-81.6H382.8v57.91a80.2,80.2,0,0,0,39.75-61.4H399.11v0H353.3a13.1,13.1,0,0,0,0-15.93h45.81v-.05h39.51C438.85,90.78,439,93.43,439,96.13Z"/><path class="cls-2" d="M350.9,96.17a8.08,8.08,0,1,1-8.07-8.1A8.08,8.08,0,0,1,350.9,96.17Z"/></g></g></svg>